<svg width="80" height="84" viewBox="0 0 80 84" fill="none" xmlns="http://www.w3.org/2000/svg">
<path d="M45.7667 73.5C45.1806 74.5608 44.3395 75.4413 43.3274 76.0534C42.3154 76.6654 41.1679 76.9876 40 76.9876C38.8321 76.9876 37.6846 76.6654 36.6726 76.0534C35.6605 75.4413 34.8194 74.5608 34.2333 73.5M60 28C60 22.4305 57.8929 17.089 54.1421 13.1508C50.3914 9.21249 45.3043 7 40 7C34.6957 7 29.6086 9.21249 25.8579 13.1508C22.1071 17.089 20 22.4305 20 28C20 52.5 10 59.5 10 59.5H70C70 59.5 60 52.5 60 28Z" stroke="#745AAA" stroke-width="4" stroke-linecap="round" stroke-linejoin="round"/>
</svg>
