<svg width="233" height="219" viewBox="0 0 233 219" fill="none" xmlns="http://www.w3.org/2000/svg">
<rect width="233" height="219" rx="100" fill="#EADDFF"/>
<path fill-rule="evenodd" clip-rule="evenodd" d="M151.451 87.6C151.451 105.743 135.804 120.45 116.501 120.45C97.1991 120.45 81.5514 105.743 81.5514 87.6C81.5514 69.4574 97.1991 54.75 116.501 54.75C135.804 54.75 151.451 69.4574 151.451 87.6ZM139.801 87.6C139.801 99.695 129.37 109.5 116.501 109.5C103.633 109.5 93.2014 99.695 93.2014 87.6C93.2014 75.505 103.633 65.7 116.501 65.7C129.37 65.7 139.801 75.505 139.801 87.6Z" fill="#4F378A"/>
<path d="M116.501 136.875C78.7881 136.875 46.6554 157.836 34.4153 187.201C37.3971 189.984 40.5382 192.617 43.8246 195.086C52.9392 168.125 81.5323 147.825 116.501 147.825C151.471 147.825 180.064 168.125 189.178 195.086C192.465 192.617 195.606 189.985 198.588 187.202C186.347 157.836 154.215 136.875 116.501 136.875Z" fill="#4F378A"/>
</svg>
