<svg width="80" height="80" viewBox="0 0 80 80" fill="none" xmlns="http://www.w3.org/2000/svg">
<path d="M26.6669 56.6667L40.0003 70M40.0003 70L53.3336 56.6667M40.0003 70V40M69.6003 60.3C72.4982 58.2622 74.6715 55.3539 75.8045 51.9972C76.9376 48.6405 76.9716 45.0101 75.9016 41.6328C74.8315 38.2555 72.7132 35.307 69.8538 33.2152C66.9945 31.1235 63.543 29.9973 60.0003 30H55.8003C54.7977 26.0929 52.9219 22.4642 50.314 19.387C47.7061 16.3097 44.4341 13.8642 40.7443 12.2345C37.0545 10.6048 33.0431 9.83345 29.012 9.97841C24.981 10.1234 21.0353 11.1809 17.4721 13.0714C13.9089 14.962 10.821 17.6362 8.44089 20.8928C6.06077 24.1494 4.45044 27.9035 3.73113 31.8725C3.01183 35.8415 3.2023 39.922 4.2882 43.8068C5.3741 47.6915 7.32713 51.2793 10.0003 54.3" stroke="#4F378A" stroke-width="4" stroke-linecap="round" stroke-linejoin="round"/>
</svg>
